<svg width="32" height="32" viewBox="0 0 32 32" fill="none" xmlns="http://www.w3.org/2000/svg">
<path fill-rule="evenodd" clip-rule="evenodd" d="M18.9483 23.7013C19.6414 23.3548 20.4018 23.1635 21.1764 23.1407C21.951 23.1179 22.7213 23.2642 23.4336 23.5693L23.719 23.7027L27.263 25.4733C27.5674 25.6253 27.8022 25.888 27.9193 26.2074C28.0363 26.5269 28.0269 26.8791 27.8927 27.1918C27.7586 27.5045 27.51 27.7541 27.1979 27.8895C26.8857 28.0249 26.5336 28.0358 26.2136 27.92L26.071 27.8587L22.5256 26.0867C22.1932 25.9205 21.8296 25.8256 21.4583 25.8081C21.087 25.7907 20.7162 25.851 20.3696 25.9853L20.1403 26.0867L18.3856 26.9653C17.6922 27.3119 16.9316 27.5031 16.1567 27.5257C15.3818 27.5482 14.6114 27.4016 13.899 27.096L13.615 26.9653L11.859 26.0867C11.5265 25.9205 11.163 25.8256 10.7917 25.8081C10.4204 25.7907 10.0495 25.851 9.70295 25.9853L9.47362 26.0867L5.92962 27.86C5.62516 28.014 5.27326 28.0454 4.94635 27.9477C4.61944 27.8501 4.34239 27.6308 4.17224 27.3351C4.00208 27.0394 3.95176 26.6897 4.03164 26.358C4.11151 26.0263 4.3155 25.7379 4.60162 25.552L4.73762 25.4733L8.28162 23.7013C8.97477 23.3548 9.73511 23.1635 10.5097 23.1407C11.2843 23.1179 12.0546 23.2642 12.767 23.5693L13.0523 23.7027L14.807 24.58C15.1396 24.7464 15.5034 24.8414 15.8749 24.8588C16.2464 24.8763 16.6175 24.8158 16.9643 24.6813L17.1923 24.58L18.9483 23.7013ZM17.3336 2.66667C17.6872 2.66667 18.0264 2.80715 18.2764 3.0572C18.5265 3.30724 18.667 3.64638 18.667 4.00001V5.76001L23.1056 6.49867C23.728 6.6028 24.2933 6.92428 24.701 7.40595C25.1087 7.88763 25.3324 8.49828 25.3323 9.12934V13.7053L28.079 14.62C28.2977 14.693 28.4989 14.8106 28.6699 14.9653C28.8409 15.12 28.9779 15.3086 29.0723 15.519C29.1666 15.7294 29.2163 15.9571 29.2181 16.1877C29.22 16.4183 29.174 16.6468 29.083 16.8587L26.191 23.6053L23.719 22.368C22.9783 21.9977 22.1617 21.8049 21.3336 21.8049C20.5056 21.8049 19.6889 21.9977 18.9483 22.368L17.1923 23.2467C16.822 23.4318 16.4136 23.5282 15.9996 23.5282C15.5856 23.5282 15.1773 23.4318 14.807 23.2467L13.0523 22.368C12.3117 21.9977 11.495 21.8049 10.667 21.8049C9.83891 21.8049 9.02223 21.9977 8.28162 22.368L6.58829 23.216L3.04429 17.0147C2.92195 16.8006 2.84865 16.562 2.82966 16.3162C2.81067 16.0703 2.84646 15.8233 2.93447 15.593C3.02247 15.3626 3.16049 15.1547 3.33857 14.9841C3.51666 14.8136 3.73036 14.6847 3.96429 14.6067L6.66695 13.7053V9.12934C6.66682 8.49828 6.8905 7.88763 7.2982 7.40595C7.7059 6.92428 8.27121 6.6028 8.89362 6.49867L13.3336 5.76001V4.00001C13.3336 3.64638 13.4741 3.30724 13.7241 3.0572C13.9742 2.80715 14.3133 2.66667 14.667 2.66667H17.3336ZM16.0003 8.01867L9.33362 9.12934V12.8173L15.1563 10.876C15.7037 10.6935 16.2955 10.6935 16.843 10.876L22.667 12.8173V9.12934L16.0003 8.01867Z" fill="#2563EB"/>
</svg>
