<svg width="106" height="41" viewBox="0 0 106 41" fill="none" xmlns="http://www.w3.org/2000/svg">
<path d="M18.013 26.0401V31.4056H16.9112V26.0401H18.013ZM19.5306 28.8968V31.4056H18.9852V28.2158H19.5011L19.5306 28.8968ZM19.4009 29.6898L19.1738 29.681C19.1758 29.4628 19.2082 29.2614 19.2711 29.0766C19.334 28.8899 19.4225 28.7278 19.5365 28.5902C19.6505 28.4526 19.7861 28.3465 19.9433 28.2718C20.1025 28.1951 20.2784 28.1568 20.471 28.1568C20.6282 28.1568 20.7698 28.1784 20.8955 28.2217C21.0213 28.263 21.1284 28.3298 21.2169 28.4221C21.3073 28.5145 21.3761 28.6344 21.4233 28.7818C21.4704 28.9273 21.494 29.1051 21.494 29.3154V31.4056H20.9457V29.3095C20.9457 29.1425 20.9211 29.0088 20.872 28.9086C20.8228 28.8064 20.7511 28.7327 20.6567 28.6875C20.5624 28.6403 20.4464 28.6167 20.3089 28.6167C20.1733 28.6167 20.0494 28.6452 19.9374 28.7022C19.8273 28.7592 19.732 28.8378 19.6514 28.9381C19.5728 29.0383 19.5109 29.1533 19.4657 29.283C19.4225 29.4107 19.4009 29.5464 19.4009 29.6898ZM23.0506 31.4056H22.5052V27.9387C22.5052 27.6969 22.5524 27.4925 22.6467 27.3255C22.7411 27.1584 22.8757 27.0316 23.0506 26.9451C23.2255 26.8587 23.4329 26.8154 23.6727 26.8154C23.8142 26.8154 23.9527 26.8331 24.0884 26.8685C24.224 26.9019 24.3635 26.9442 24.507 26.9953L24.4156 27.4552C24.3252 27.4198 24.22 27.3864 24.1001 27.3549C23.9822 27.3215 23.8525 27.3048 23.711 27.3048C23.4771 27.3048 23.3081 27.3579 23.2039 27.464C23.1017 27.5682 23.0506 27.7264 23.0506 27.9387V31.4056ZM23.7021 28.2158V28.6344H22.0011V28.2158H23.7021ZM24.7753 28.2158V31.4056H24.2299V28.2158H24.7753ZM26.2169 28.8968V31.4056H25.6715V28.2158H26.1874L26.2169 28.8968ZM26.0872 29.6898L25.8602 29.681C25.8621 29.4628 25.8946 29.2614 25.9575 29.0766C26.0203 28.8899 26.1088 28.7278 26.2228 28.5902C26.3368 28.4526 26.4724 28.3465 26.6296 28.2718C26.7888 28.1951 26.9647 28.1568 27.1573 28.1568C27.3146 28.1568 27.4561 28.1784 27.5819 28.2217C27.7077 28.263 27.8148 28.3298 27.9032 28.4221C27.9936 28.5145 28.0624 28.6344 28.1096 28.7818C28.1567 28.9273 28.1803 29.1051 28.1803 29.3154V31.4056H27.632V29.3095C27.632 29.1425 27.6074 29.0088 27.5583 28.9086C27.5091 28.8064 27.4374 28.7327 27.3431 28.6875C27.2487 28.6403 27.1328 28.6167 26.9952 28.6167C26.8596 28.6167 26.7358 28.6452 26.6237 28.7022C26.5137 28.7592 26.4183 28.8378 26.3378 28.9381C26.2591 29.0383 26.1972 29.1533 26.152 29.283C26.1088 29.4107 26.0872 29.5464 26.0872 29.6898ZM29.6013 28.2158V31.4056H29.053V28.2158H29.6013ZM29.0117 27.3697C29.0117 27.2812 29.0382 27.2065 29.0913 27.1456C29.1463 27.0847 29.2269 27.0542 29.333 27.0542C29.4372 27.0542 29.5168 27.0847 29.5718 27.1456C29.6288 27.2065 29.6573 27.2812 29.6573 27.3697C29.6573 27.4542 29.6288 27.5269 29.5718 27.5878C29.5168 27.6468 29.4372 27.6763 29.333 27.6763C29.2269 27.6763 29.1463 27.6468 29.0913 27.5878C29.0382 27.5269 29.0117 27.4542 29.0117 27.3697ZM31.8124 28.2158V28.6344H30.0878V28.2158H31.8124ZM30.6715 27.4404H31.2169V30.6155C31.2169 30.7236 31.2336 30.8052 31.267 30.8602C31.3004 30.9153 31.3437 30.9516 31.3967 30.9693C31.4498 30.987 31.5068 30.9959 31.5677 30.9959C31.6129 30.9959 31.6601 30.9919 31.7092 30.9841C31.7603 30.9742 31.7987 30.9664 31.8242 30.9605L31.8271 31.4056C31.7839 31.4194 31.7269 31.4322 31.6562 31.444C31.5874 31.4577 31.5038 31.4646 31.4056 31.4646C31.2719 31.4646 31.1491 31.4381 31.0371 31.385C30.925 31.3319 30.8356 31.2435 30.7688 31.1197C30.7039 30.9939 30.6715 30.8249 30.6715 30.6126V27.4404ZM33.3484 31.0755L34.2358 28.2158H34.8195L33.54 31.898C33.5105 31.9766 33.4712 32.0611 33.4221 32.1515C33.3749 32.2439 33.314 32.3313 33.2393 32.4139C33.1646 32.4964 33.0742 32.5633 32.9681 32.6144C32.8639 32.6674 32.7391 32.694 32.5937 32.694C32.5504 32.694 32.4954 32.6881 32.4286 32.6763C32.3617 32.6645 32.3146 32.6547 32.2871 32.6468L32.2841 32.2046C32.2998 32.2065 32.3244 32.2085 32.3578 32.2105C32.3932 32.2144 32.4178 32.2164 32.4315 32.2164C32.5553 32.2164 32.6605 32.1997 32.747 32.1663C32.8334 32.1348 32.9062 32.0808 32.9651 32.0041C33.026 31.9294 33.0781 31.8262 33.1214 31.6946L33.3484 31.0755ZM32.6968 28.2158L33.5253 30.6922L33.6668 31.2671L33.2747 31.4676L32.1013 28.2158H32.6968ZM38.9623 29.4931H37.5951V28.6307H38.9623C39.1736 28.6307 39.3456 28.5963 39.4782 28.5275C39.6109 28.4563 39.7079 28.358 39.7694 28.2327C39.8308 28.1074 39.8615 27.9662 39.8615 27.8089C39.8615 27.6493 39.8308 27.5006 39.7694 27.363C39.7079 27.2255 39.6109 27.1149 39.4782 27.0314C39.3456 26.9478 39.1736 26.9061 38.9623 26.9061H37.9784V31.4056H36.8728V26.0401H38.9623C39.3824 26.0401 39.7423 26.1162 40.0421 26.2686C40.3442 26.4184 40.5752 26.626 40.7349 26.8913C40.8946 27.1567 40.9744 27.4601 40.9744 27.8016C40.9744 28.148 40.8946 28.4477 40.7349 28.7007C40.5752 28.9538 40.3442 29.1491 40.0421 29.2867C39.7423 29.4243 39.3824 29.4931 38.9623 29.4931ZM42.9976 31.4646C42.7755 31.4646 42.574 31.4273 42.3932 31.3526C42.2143 31.2759 42.0601 31.1688 41.9303 31.0312C41.8026 30.8937 41.7043 30.7305 41.6355 30.5418C41.5667 30.3532 41.5323 30.1468 41.5323 29.9227V29.7989C41.5323 29.5395 41.5707 29.3085 41.6473 29.1061C41.724 28.9017 41.8281 28.7288 41.9598 28.5872C42.0915 28.4457 42.2409 28.3386 42.4079 28.2659C42.575 28.1932 42.7479 28.1568 42.9268 28.1568C43.1548 28.1568 43.3513 28.1961 43.5164 28.2747C43.6835 28.3534 43.8201 28.4634 43.9262 28.6049C44.0323 28.7445 44.111 28.9096 44.1621 29.1002C44.2132 29.2889 44.2387 29.4953 44.2387 29.7193V29.964H41.8566V29.5188H43.6933V29.4776C43.6854 29.3361 43.656 29.1985 43.6049 29.0648C43.5557 28.9312 43.4771 28.8211 43.369 28.7346C43.2609 28.6482 43.1135 28.6049 42.9268 28.6049C42.803 28.6049 42.689 28.6315 42.5848 28.6845C42.4806 28.7356 42.3912 28.8123 42.3165 28.9145C42.2419 29.0167 42.1839 29.1415 42.1426 29.2889C42.1013 29.4363 42.0807 29.6063 42.0807 29.7989V29.9227C42.0807 30.0741 42.1013 30.2166 42.1426 30.3502C42.1858 30.4819 42.2477 30.5979 42.3283 30.6981C42.4109 30.7983 42.5101 30.8769 42.6261 30.9339C42.744 30.9909 42.8777 31.0194 43.027 31.0194C43.2196 31.0194 43.3828 30.9801 43.5164 30.9015C43.6501 30.8229 43.767 30.7177 43.8672 30.5861L44.1974 30.8484C44.1286 30.9526 44.0412 31.0519 43.9351 31.1462C43.8289 31.2405 43.6982 31.3172 43.543 31.3762C43.3896 31.4351 43.2078 31.4646 42.9976 31.4646ZM45.4209 28.717V31.4056H44.8755V28.2158H45.4062L45.4209 28.717ZM46.4174 28.1981L46.4144 28.7052C46.3692 28.6953 46.326 28.6894 46.2847 28.6875C46.2454 28.6835 46.2002 28.6816 46.1491 28.6816C46.0233 28.6816 45.9123 28.7012 45.8159 28.7405C45.7196 28.7799 45.6381 28.8349 45.5713 28.9056C45.5044 28.9764 45.4514 29.0609 45.4121 29.1592C45.3747 29.2555 45.3501 29.3616 45.3384 29.4776L45.185 29.566C45.185 29.3734 45.2037 29.1926 45.2411 29.0236C45.2804 28.8545 45.3403 28.7052 45.4209 28.5755C45.5015 28.4438 45.6037 28.3416 45.7275 28.2688C45.8533 28.1942 46.0027 28.1568 46.1756 28.1568C46.2149 28.1568 46.2601 28.1617 46.3112 28.1716C46.3623 28.1794 46.3977 28.1883 46.4174 28.1981ZM47.7823 31.4056H47.2369V27.8797C47.2369 27.6497 47.2782 27.4562 47.3608 27.2989C47.4453 27.1397 47.5661 27.0198 47.7234 26.9392C47.8806 26.8567 48.0673 26.8154 48.2835 26.8154C48.3464 26.8154 48.4093 26.8194 48.4722 26.8272C48.5371 26.8351 48.5999 26.8469 48.6609 26.8626L48.6314 27.3078C48.5901 27.2979 48.543 27.2911 48.4899 27.2871C48.4388 27.2832 48.3877 27.2812 48.3366 27.2812C48.2206 27.2812 48.1204 27.3048 48.0359 27.352C47.9533 27.3972 47.8904 27.464 47.8472 27.5525C47.804 27.6409 47.7823 27.75 47.7823 27.8797V31.4056ZM48.4604 28.2158V28.6344H46.7328V28.2158H48.4604ZM48.9233 29.8461V29.7783C48.9233 29.5483 48.9567 29.3351 49.0235 29.1385C49.0903 28.94 49.1866 28.7681 49.3124 28.6226C49.4382 28.4752 49.5905 28.3612 49.7694 28.2806C49.9482 28.1981 50.1487 28.1568 50.3708 28.1568C50.5948 28.1568 50.7963 28.1981 50.9751 28.2806C51.156 28.3612 51.3093 28.4752 51.435 28.6226C51.5628 28.7681 51.6601 28.94 51.7269 29.1385C51.7937 29.3351 51.8271 29.5483 51.8271 29.7783V29.8461C51.8271 30.076 51.7937 30.2893 51.7269 30.4858C51.6601 30.6824 51.5628 30.8543 51.435 31.0017C51.3093 31.1472 51.1569 31.2612 50.9781 31.3437C50.8012 31.4243 50.6007 31.4646 50.3767 31.4646C50.1526 31.4646 49.9512 31.4243 49.7723 31.3437C49.5935 31.2612 49.4402 31.1472 49.3124 31.0017C49.1866 30.8543 49.0903 30.6824 49.0235 30.4858C48.9567 30.2893 48.9233 30.076 48.9233 29.8461ZM49.4687 29.7783V29.8461C49.4687 30.0053 49.4873 30.1556 49.5247 30.2971C49.562 30.4367 49.618 30.5605 49.6927 30.6686C49.7694 30.7767 49.8647 30.8622 49.9787 30.9251C50.0927 30.986 50.2253 31.0165 50.3767 31.0165C50.526 31.0165 50.6567 30.986 50.7688 30.9251C50.8828 30.8622 50.9771 30.7767 51.0518 30.6686C51.1265 30.5605 51.1825 30.4367 51.2198 30.2971C51.2591 30.1556 51.2788 30.0053 51.2788 29.8461V29.7783C51.2788 29.621 51.2591 29.4727 51.2198 29.3331C51.1825 29.1916 51.1255 29.0668 51.0488 28.9587C50.9742 28.8486 50.8798 28.7622 50.7658 28.6993C50.6538 28.6364 50.5221 28.6049 50.3708 28.6049C50.2214 28.6049 50.0897 28.6364 49.9757 28.6993C49.8637 28.7622 49.7694 28.8486 49.6927 28.9587C49.618 29.0668 49.562 29.1916 49.5247 29.3331C49.4873 29.4727 49.4687 29.621 49.4687 29.7783ZM53.0565 28.717V31.4056H52.5111V28.2158H53.0418L53.0565 28.717ZM54.053 28.1981L54.05 28.7052C54.0048 28.6953 53.9616 28.6894 53.9203 28.6875C53.881 28.6835 53.8358 28.6816 53.7847 28.6816C53.6589 28.6816 53.5479 28.7012 53.4516 28.7405C53.3553 28.7799 53.2737 28.8349 53.2069 28.9056C53.14 28.9764 53.087 29.0609 53.0477 29.1592C53.0103 29.2555 52.9858 29.3616 52.974 29.4776L52.8207 29.566C52.8207 29.3734 52.8393 29.1926 52.8767 29.0236C52.916 28.8545 52.9759 28.7052 53.0565 28.5755C53.1371 28.4438 53.2393 28.3416 53.3631 28.2688C53.4889 28.1942 53.6383 28.1568 53.8112 28.1568C53.8505 28.1568 53.8957 28.1617 53.9468 28.1716C53.9979 28.1794 54.0333 28.1883 54.053 28.1981ZM55.0996 28.8496V31.4056H54.5512V28.2158H55.0701L55.0996 28.8496ZM54.9875 29.6898L54.734 29.681C54.736 29.4628 54.7645 29.2614 54.8195 29.0766C54.8745 28.8899 54.9561 28.7278 55.0642 28.5902C55.1723 28.4526 55.3069 28.3465 55.4681 28.2718C55.6292 28.1951 55.8159 28.1568 56.0282 28.1568C56.1776 28.1568 56.3152 28.1784 56.4409 28.2217C56.5667 28.263 56.6758 28.3288 56.7682 28.4192C56.8606 28.5096 56.9323 28.6256 56.9834 28.7671C57.0345 28.9086 57.0601 29.0796 57.0601 29.28V31.4056H56.5146V29.3066C56.5146 29.1395 56.4862 29.0059 56.4292 28.9056C56.3741 28.8054 56.2955 28.7327 56.1933 28.6875C56.0911 28.6403 55.9712 28.6167 55.8336 28.6167C55.6725 28.6167 55.5378 28.6452 55.4297 28.7022C55.3216 28.7592 55.2352 28.8378 55.1703 28.9381C55.1055 29.0383 55.0583 29.1533 55.0288 29.283C55.0013 29.4107 54.9875 29.5464 54.9875 29.6898ZM57.0542 29.3891L56.6886 29.5012C56.6906 29.3262 56.7191 29.1582 56.7741 28.997C56.8311 28.8359 56.9126 28.6924 57.0188 28.5666C57.1269 28.4408 57.2595 28.3416 57.4168 28.2688C57.574 28.1942 57.7538 28.1568 57.9563 28.1568C58.1273 28.1568 58.2786 28.1794 58.4103 28.2246C58.5439 28.2698 58.656 28.3396 58.7464 28.4339C58.8387 28.5263 58.9085 28.6452 58.9557 28.7907C59.0029 28.9361 59.0264 29.1091 59.0264 29.3095V31.4056H58.4781V29.3036C58.4781 29.1248 58.4496 28.9862 58.3926 28.888C58.3376 28.7877 58.2589 28.7179 58.1567 28.6786C58.0565 28.6374 57.9366 28.6167 57.7971 28.6167C57.6772 28.6167 57.5711 28.6374 57.4787 28.6786C57.3863 28.7199 57.3087 28.7769 57.2458 28.8496C57.1829 28.9204 57.1347 29.0019 57.1013 29.0943C57.0699 29.1867 57.0542 29.285 57.0542 29.3891ZM61.7328 30.8602V29.2181C61.7328 29.0924 61.7073 28.9833 61.6562 28.8909C61.607 28.7966 61.5323 28.7238 61.4321 28.6727C61.3319 28.6216 61.208 28.5961 61.0606 28.5961C60.9231 28.5961 60.8022 28.6197 60.698 28.6668C60.5958 28.714 60.5152 28.7759 60.4563 28.8526C60.3993 28.9292 60.3708 29.0118 60.3708 29.1002H59.8254C59.8254 28.9862 59.8549 28.8732 59.9138 28.7612C59.9728 28.6492 60.0573 28.5479 60.1674 28.4575C60.2794 28.3652 60.413 28.2924 60.5683 28.2394C60.7255 28.1843 60.9005 28.1568 61.0931 28.1568C61.325 28.1568 61.5294 28.1961 61.7063 28.2747C61.8851 28.3534 62.0247 28.4723 62.1249 28.6315C62.2271 28.7887 62.2782 28.9862 62.2782 29.224V30.7099C62.2782 30.816 62.2871 30.929 62.3047 31.0489C62.3244 31.1688 62.3529 31.272 62.3902 31.3585V31.4056H61.8213C61.7937 31.3427 61.7721 31.2592 61.7564 31.1551C61.7407 31.0489 61.7328 30.9506 61.7328 30.8602ZM61.8271 29.4717L61.833 29.8549H61.2817C61.1265 29.8549 60.9879 29.8677 60.8661 29.8933C60.7442 29.9168 60.642 29.9532 60.5595 30.0023C60.4769 30.0515 60.414 30.1134 60.3708 30.1881C60.3275 30.2608 60.3059 30.3463 60.3059 30.4446C60.3059 30.5448 60.3285 30.6362 60.3737 30.7187C60.4189 30.8013 60.4867 30.8671 60.5771 30.9163C60.6695 30.9634 60.7825 30.987 60.9162 30.987C61.0832 30.987 61.2306 30.9516 61.3584 30.8809C61.4862 30.8101 61.5874 30.7236 61.6621 30.6214C61.7387 30.5192 61.78 30.42 61.7859 30.3237L62.0188 30.5861C62.005 30.6686 61.9677 30.76 61.9067 30.8602C61.8458 30.9605 61.7643 31.0568 61.6621 31.1492C61.5618 31.2396 61.4419 31.3152 61.3024 31.3762C61.1648 31.4351 61.0095 31.4646 60.8366 31.4646C60.6204 31.4646 60.4307 31.4223 60.2676 31.3378C60.1064 31.2533 59.9806 31.1403 59.8902 30.9988C59.8018 30.8553 59.7576 30.6951 59.7576 30.5183C59.7576 30.3473 59.791 30.1969 59.8578 30.0672C59.9246 29.9355 60.0209 29.8264 60.1467 29.74C60.2725 29.6515 60.4238 29.5847 60.6007 29.5395C60.7776 29.4943 60.9751 29.4717 61.1933 29.4717H61.8271ZM63.6815 28.8968V31.4056H63.1361V28.2158H63.652L63.6815 28.8968ZM63.5518 29.6898L63.3248 29.681C63.3268 29.4628 63.3592 29.2614 63.4221 29.0766C63.485 28.8899 63.5734 28.7278 63.6874 28.5902C63.8014 28.4526 63.937 28.3465 64.0942 28.2718C64.2534 28.1951 64.4294 28.1568 64.622 28.1568C64.7792 28.1568 64.9207 28.1784 65.0465 28.2217C65.1723 28.263 65.2794 28.3298 65.3678 28.4221C65.4582 28.5145 65.527 28.6344 65.5742 28.7818C65.6214 28.9273 65.645 29.1051 65.645 29.3154V31.4056H65.0966V29.3095C65.0966 29.1425 65.072 29.0088 65.0229 28.9086C64.9738 28.8064 64.902 28.7327 64.8077 28.6875C64.7134 28.6403 64.5974 28.6167 64.4598 28.6167C64.3242 28.6167 64.2004 28.6452 64.0884 28.7022C63.9783 28.7592 63.883 28.8378 63.8024 28.9381C63.7238 29.0383 63.6619 29.1533 63.6167 29.283C63.5734 29.4107 63.5518 29.5464 63.5518 29.6898ZM67.7499 31.0165C67.8796 31.0165 67.9995 30.99 68.1096 30.9369C68.2196 30.8838 68.3101 30.8111 68.3808 30.7187C68.4516 30.6244 68.4919 30.5173 68.5017 30.3974H69.0205C69.0107 30.5861 68.9468 30.762 68.8289 30.9251C68.713 31.0863 68.5606 31.217 68.372 31.3172C68.1833 31.4155 67.9759 31.4646 67.7499 31.4646C67.5101 31.4646 67.3008 31.4223 67.122 31.3378C66.9451 31.2533 66.7977 31.1374 66.6797 30.99C66.5638 30.8426 66.4763 30.6735 66.4174 30.4829C66.3604 30.2903 66.3319 30.0869 66.3319 29.8726V29.7488C66.3319 29.5346 66.3604 29.3321 66.4174 29.1415C66.4763 28.9489 66.5638 28.7789 66.6797 28.6315C66.7977 28.4841 66.9451 28.3681 67.122 28.2836C67.3008 28.1991 67.5101 28.1568 67.7499 28.1568C67.9995 28.1568 68.2177 28.2079 68.4044 28.3101C68.5911 28.4104 68.7375 28.5479 68.8437 28.7229C68.9518 28.8958 69.0107 29.0924 69.0205 29.3125H68.5017C68.4919 29.1808 68.4545 29.0619 68.3897 28.9558C68.3268 28.8496 68.2403 28.7651 68.1302 28.7022C68.0221 28.6374 67.8954 28.6049 67.7499 28.6049C67.5829 28.6049 67.4423 28.6383 67.3283 28.7052C67.2163 28.77 67.1269 28.8585 67.0601 28.9705C66.9952 29.0806 66.948 29.2034 66.9185 29.339C66.891 29.4727 66.8773 29.6093 66.8773 29.7488V29.8726C66.8773 30.0122 66.891 30.1497 66.9185 30.2854C66.9461 30.421 66.9922 30.5438 67.0571 30.6539C67.1239 30.7639 67.2134 30.8524 67.3254 30.9192C67.4394 30.9841 67.5809 31.0165 67.7499 31.0165ZM70.9575 31.4646C70.7354 31.4646 70.5339 31.4273 70.3531 31.3526C70.1742 31.2759 70.02 31.1688 69.8902 31.0312C69.7625 30.8937 69.6642 30.7305 69.5954 30.5418C69.5266 30.3532 69.4922 30.1468 69.4922 29.9227V29.7989C69.4922 29.5395 69.5306 29.3085 69.6072 29.1061C69.6839 28.9017 69.788 28.7288 69.9197 28.5872C70.0514 28.4457 70.2008 28.3386 70.3678 28.2659C70.5349 28.1932 70.7079 28.1568 70.8867 28.1568C71.1147 28.1568 71.3112 28.1961 71.4763 28.2747C71.6434 28.3534 71.78 28.4634 71.8861 28.6049C71.9922 28.7445 72.0709 28.9096 72.122 29.1002C72.1731 29.2889 72.1986 29.4953 72.1986 29.7193V29.964H69.8165V29.5188H71.6532V29.4776C71.6454 29.3361 71.6159 29.1985 71.5648 29.0648C71.5156 28.9312 71.437 28.8211 71.3289 28.7346C71.2208 28.6482 71.0734 28.6049 70.8867 28.6049C70.7629 28.6049 70.6489 28.6315 70.5447 28.6845C70.4406 28.7356 70.3511 28.8123 70.2764 28.9145C70.2018 29.0167 70.1438 29.1415 70.1025 29.2889C70.0612 29.4363 70.0406 29.6063 70.0406 29.7989V29.9227C70.0406 30.0741 70.0612 30.2166 70.1025 30.3502C70.1457 30.4819 70.2077 30.5979 70.2882 30.6981C70.3708 30.7983 70.47 30.8769 70.586 30.9339C70.7039 30.9909 70.8376 31.0194 70.9869 31.0194C71.1795 31.0194 71.3427 30.9801 71.4763 30.9015C71.61 30.8229 71.7269 30.7177 71.8272 30.5861L72.1573 30.8484C72.0886 30.9526 72.0011 31.0519 71.895 31.1462C71.7888 31.2405 71.6581 31.3172 71.5029 31.3762C71.3496 31.4351 71.1678 31.4646 70.9575 31.4646ZM17.3423 34.0401H18.2784L19.6566 37.9795L21.0348 34.0401H21.9709L20.0325 39.4056H19.2807L17.3423 34.0401ZM16.8375 34.0401H17.7698L17.9393 37.88V39.4056H16.8375V34.0401ZM21.5434 34.0401H22.4794V39.4056H21.3739V37.88L21.5434 34.0401ZM25.2661 38.8602V37.2181C25.2661 37.0924 25.2406 36.9833 25.1895 36.8909C25.1403 36.7966 25.0657 36.7238 24.9654 36.6727C24.8652 36.6216 24.7414 36.5961 24.594 36.5961C24.4564 36.5961 24.3355 36.6197 24.2313 36.6668C24.1291 36.714 24.0486 36.7759 23.9896 36.8526C23.9326 36.9292 23.9041 37.0118 23.9041 37.1002H23.3587C23.3587 36.9862 23.3882 36.8732 23.4471 36.7612C23.5061 36.6492 23.5906 36.5479 23.7007 36.4575C23.8127 36.3652 23.9464 36.2924 24.1016 36.2394C24.2589 36.1843 24.4338 36.1568 24.6264 36.1568C24.8583 36.1568 25.0627 36.1961 25.2396 36.2747C25.4184 36.3534 25.558 36.4723 25.6582 36.6315C25.7604 36.7887 25.8115 36.9862 25.8115 37.224V38.7099C25.8115 38.816 25.8204 38.929 25.8381 39.0489C25.8577 39.1688 25.8862 39.272 25.9236 39.3585V39.4056H25.3546C25.327 39.3427 25.3054 39.2592 25.2897 39.1551C25.274 39.0489 25.2661 38.9506 25.2661 38.8602ZM25.3605 37.4717L25.3664 37.8549H24.8151C24.6598 37.8549 24.5212 37.8677 24.3994 37.8933C24.2775 37.9168 24.1753 37.9532 24.0928 38.0023C24.0102 38.0515 23.9473 38.1134 23.9041 38.1881C23.8609 38.2608 23.8392 38.3463 23.8392 38.4446C23.8392 38.5448 23.8618 38.6362 23.907 38.7187C23.9522 38.8013 24.0201 38.8671 24.1105 38.9163C24.2028 38.9634 24.3158 38.987 24.4495 38.987C24.6166 38.987 24.764 38.9516 24.8917 38.8809C25.0195 38.8101 25.1207 38.7236 25.1954 38.6214C25.272 38.5192 25.3133 38.42 25.3192 38.3237L25.5521 38.5861C25.5383 38.6686 25.501 38.76 25.4401 38.8602C25.3791 38.9605 25.2976 39.0568 25.1954 39.1492C25.0951 39.2396 24.9752 39.3152 24.8357 39.3762C24.6981 39.4351 24.5429 39.4646 24.3699 39.4646C24.1537 39.4646 23.964 39.4223 23.8009 39.3378C23.6397 39.2533 23.514 39.1403 23.4236 38.9988C23.3351 38.8553 23.2909 38.6951 23.2909 38.5183C23.2909 38.3473 23.3243 38.1969 23.3911 38.0672C23.4579 37.9355 23.5543 37.8264 23.68 37.74C23.8058 37.6515 23.9572 37.5847 24.134 37.5395C24.3109 37.4943 24.5085 37.4717 24.7266 37.4717H25.3605ZM27.2148 36.8968V39.4056H26.6694V36.2158H27.1853L27.2148 36.8968ZM27.0851 37.6898L26.8581 37.681C26.8601 37.4628 26.8925 37.2614 26.9554 37.0766C27.0183 36.8899 27.1067 36.7278 27.2207 36.5902C27.3347 36.4526 27.4703 36.3465 27.6276 36.2718C27.7868 36.1951 27.9627 36.1568 28.1553 36.1568C28.3125 36.1568 28.454 36.1784 28.5798 36.2217C28.7056 36.263 28.8127 36.3298 28.9011 36.4221C28.9916 36.5145 29.0603 36.6344 29.1075 36.7818C29.1547 36.9273 29.1783 37.1051 29.1783 37.3154V39.4056H28.6299V37.3095C28.6299 37.1425 28.6054 37.0088 28.5562 36.9086C28.5071 36.8064 28.4353 36.7327 28.341 36.6875C28.2467 36.6403 28.1307 36.6167 27.9931 36.6167C27.8575 36.6167 27.7337 36.6452 27.6217 36.7022C27.5116 36.7592 27.4163 36.8378 27.3357 36.9381C27.2571 37.0383 27.1952 37.1533 27.15 37.283C27.1067 37.4107 27.0851 37.5464 27.0851 37.6898ZM31.8876 38.8602V37.2181C31.8876 37.0924 31.862 36.9833 31.8109 36.8909C31.7618 36.7966 31.6871 36.7238 31.5869 36.6727C31.4866 36.6216 31.3628 36.5961 31.2154 36.5961C31.0778 36.5961 30.957 36.6197 30.8528 36.6668C30.7506 36.714 30.67 36.7759 30.6111 36.8526C30.5541 36.9292 30.5256 37.0118 30.5256 37.1002H29.9802C29.9802 36.9862 30.0096 36.8732 30.0686 36.7612C30.1276 36.6492 30.2121 36.5479 30.3221 36.4575C30.4342 36.3652 30.5678 36.2924 30.7231 36.2394C30.8803 36.1843 31.0552 36.1568 31.2478 36.1568C31.4798 36.1568 31.6842 36.1961 31.8611 36.2747C32.0399 36.3534 32.1794 36.4723 32.2797 36.6315C32.3819 36.7887 32.433 36.9862 32.433 37.224V38.7099C32.433 38.816 32.4418 38.929 32.4595 39.0489C32.4792 39.1688 32.5077 39.272 32.545 39.3585V39.4056H31.976C31.9485 39.3427 31.9269 39.2592 31.9112 39.1551C31.8954 39.0489 31.8876 38.9506 31.8876 38.8602ZM31.9819 37.4717L31.9878 37.8549H31.4365C31.2813 37.8549 31.1427 37.8677 31.0208 37.8933C30.899 37.9168 30.7968 37.9532 30.7142 38.0023C30.6317 38.0515 30.5688 38.1134 30.5256 38.1881C30.4823 38.2608 30.4607 38.3463 30.4607 38.4446C30.4607 38.5448 30.4833 38.6362 30.5285 38.7187C30.5737 38.8013 30.6415 38.8671 30.7319 38.9163C30.8243 38.9634 30.9373 38.987 31.071 38.987C31.238 38.987 31.3854 38.9516 31.5132 38.8809C31.6409 38.8101 31.7421 38.7236 31.8168 38.6214C31.8935 38.5192 31.9348 38.42 31.9407 38.3237L32.1736 38.5861C32.1598 38.6686 32.1225 38.76 32.0615 38.8602C32.0006 38.9605 31.919 39.0568 31.8168 39.1492C31.7166 39.2396 31.5967 39.3152 31.4572 39.3762C31.3196 39.4351 31.1643 39.4646 30.9914 39.4646C30.7752 39.4646 30.5855 39.4223 30.4224 39.3378C30.2612 39.2533 30.1354 39.1403 30.045 38.9988C29.9566 38.8553 29.9123 38.6951 29.9123 38.5183C29.9123 38.3473 29.9458 38.1969 30.0126 38.0672C30.0794 37.9355 30.1757 37.8264 30.3015 37.74C30.4273 37.6515 30.5786 37.5847 30.7555 37.5395C30.9324 37.4943 31.1299 37.4717 31.3481 37.4717H31.9819ZM35.3575 36.2158H35.8528V39.3378C35.8528 39.6189 35.7958 39.8587 35.6818 40.0572C35.5678 40.2557 35.4086 40.406 35.2042 40.5082C35.0018 40.6124 34.7679 40.6645 34.5026 40.6645C34.3925 40.6645 34.2628 40.6468 34.1134 40.6114C33.966 40.578 33.8206 40.52 33.6771 40.4375C33.5356 40.3569 33.4167 40.2478 33.3204 40.1102L33.6063 39.7859C33.74 39.9471 33.8795 40.0591 34.025 40.122C34.1724 40.1849 34.3178 40.2164 34.4613 40.2164C34.6342 40.2164 34.7836 40.1839 34.9094 40.1191C35.0352 40.0542 35.1325 39.9579 35.2013 39.8302C35.272 39.7044 35.3074 39.5491 35.3074 39.3644V36.9174L35.3575 36.2158ZM33.1612 37.8461V37.7842C33.1612 37.5405 33.1897 37.3194 33.2467 37.1209C33.3056 36.9204 33.3892 36.7484 33.4973 36.6049C33.6073 36.4615 33.74 36.3514 33.8952 36.2747C34.0505 36.1961 34.2254 36.1568 34.42 36.1568C34.6205 36.1568 34.7954 36.1922 34.9448 36.263C35.0961 36.3317 35.2239 36.433 35.328 36.5666C35.4342 36.6983 35.5177 36.8575 35.5786 37.0442C35.6395 37.2309 35.6818 37.4422 35.7054 37.678V37.9493C35.6838 38.1832 35.6415 38.3935 35.5786 38.5802C35.5177 38.7669 35.4342 38.9261 35.328 39.0578C35.2239 39.1894 35.0961 39.2907 34.9448 39.3614C34.7934 39.4302 34.6166 39.4646 34.4141 39.4646C34.2235 39.4646 34.0505 39.4243 33.8952 39.3437C33.7419 39.2631 33.6103 39.1501 33.5002 39.0047C33.3901 38.8593 33.3056 38.6883 33.2467 38.4917C33.1897 38.2932 33.1612 38.078 33.1612 37.8461ZM33.7066 37.7842V37.8461C33.7066 38.0053 33.7223 38.1547 33.7537 38.2942C33.7872 38.4337 33.8373 38.5566 33.9041 38.6627C33.9729 38.7688 34.0603 38.8524 34.1665 38.9133C34.2726 38.9723 34.3994 39.0017 34.5468 39.0017C34.7276 39.0017 34.877 38.9634 34.9949 38.8868C35.1128 38.8101 35.2062 38.7089 35.275 38.5831C35.3457 38.4573 35.4008 38.3207 35.4401 38.1733V37.4628C35.4184 37.3547 35.385 37.2506 35.3398 37.1503C35.2966 37.0481 35.2396 36.9577 35.1688 36.8791C35.1 36.7985 35.0145 36.7346 34.9123 36.6875C34.8101 36.6403 34.6903 36.6167 34.5527 36.6167C34.4033 36.6167 34.2746 36.6482 34.1665 36.7111C34.0603 36.772 33.9729 36.8565 33.9041 36.9646C33.8373 37.0707 33.7872 37.1946 33.7537 37.3361C33.7223 37.4756 33.7066 37.625 33.7066 37.7842ZM38.0049 39.4646C37.7828 39.4646 37.5814 39.4273 37.4006 39.3526C37.2217 39.2759 37.0674 39.1688 36.9377 39.0312C36.81 38.8937 36.7117 38.7305 36.6429 38.5418C36.5741 38.3532 36.5397 38.1468 36.5397 37.9227V37.7989C36.5397 37.5395 36.578 37.3085 36.6547 37.1061C36.7313 36.9017 36.8355 36.7288 36.9672 36.5872C37.0989 36.4457 37.2482 36.3386 37.4153 36.2659C37.5824 36.1932 37.7553 36.1568 37.9342 36.1568C38.1622 36.1568 38.3587 36.1961 38.5238 36.2747C38.6908 36.3534 38.8274 36.4634 38.9336 36.6049C39.0397 36.7445 39.1183 36.9096 39.1694 37.1002C39.2205 37.2889 39.2461 37.4953 39.2461 37.7193V37.964H36.864V37.5188H38.7007V37.4776C38.6928 37.3361 38.6633 37.1985 38.6122 37.0648C38.5631 36.9312 38.4845 36.8211 38.3764 36.7346C38.2683 36.6482 38.1209 36.6049 37.9342 36.6049C37.8103 36.6049 37.6964 36.6315 37.5922 36.6845C37.488 36.7356 37.3986 36.8123 37.3239 36.9145C37.2492 37.0167 37.1912 37.1415 37.15 37.2889C37.1087 37.4363 37.0881 37.6063 37.0881 37.7989V37.9227C37.0881 38.0741 37.1087 38.2166 37.15 38.3502C37.1932 38.4819 37.2551 38.5979 37.3357 38.6981C37.4182 38.7983 37.5175 38.8769 37.6335 38.9339C37.7514 38.9909 37.885 39.0194 38.0344 39.0194C38.227 39.0194 38.3901 38.9801 38.5238 38.9015C38.6574 38.8229 38.7744 38.7177 38.8746 38.5861L39.2048 38.8484C39.136 38.9526 39.0486 39.0519 38.9424 39.1462C38.8363 39.2405 38.7056 39.3172 38.5503 39.3762C38.397 39.4351 38.2152 39.4646 38.0049 39.4646ZM40.4253 36.8496V39.4056H39.877V36.2158H40.3958L40.4253 36.8496ZM40.3133 37.6898L40.0598 37.681C40.0617 37.4628 40.0902 37.2614 40.1453 37.0766C40.2003 36.8899 40.2818 36.7278 40.3899 36.5902C40.498 36.4526 40.6327 36.3465 40.7938 36.2718C40.955 36.1951 41.1417 36.1568 41.354 36.1568C41.5033 36.1568 41.6409 36.1784 41.7667 36.2217C41.8925 36.263 42.0016 36.3288 42.094 36.4192C42.1863 36.5096 42.2581 36.6256 42.3092 36.7671C42.3603 36.9086 42.3858 37.0796 42.3858 37.28V39.4056H41.8404V37.3066C41.8404 37.1395 41.8119 37.0059 41.7549 36.9056C41.6999 36.8054 41.6213 36.7327 41.5191 36.6875C41.4169 36.6403 41.297 36.6167 41.1594 36.6167C40.9982 36.6167 40.8636 36.6452 40.7555 36.7022C40.6474 36.7592 40.5609 36.8378 40.4961 36.9381C40.4312 37.0383 40.384 37.1533 40.3546 37.283C40.3271 37.4107 40.3133 37.5464 40.3133 37.6898ZM42.3799 37.3891L42.0144 37.5012C42.0163 37.3262 42.0448 37.1582 42.0998 36.997C42.1568 36.8359 42.2384 36.6924 42.3445 36.5666C42.4526 36.4408 42.5853 36.3416 42.7425 36.2688C42.8998 36.1942 43.0796 36.1568 43.282 36.1568C43.453 36.1568 43.6044 36.1794 43.7361 36.2246C43.8697 36.2698 43.9817 36.3396 44.0721 36.4339C44.1645 36.5263 44.2343 36.6452 44.2815 36.7907C44.3286 36.9361 44.3522 37.1091 44.3522 37.3095V39.4056H43.8039V37.3036C43.8039 37.1248 43.7754 36.9862 43.7184 36.888C43.6633 36.7877 43.5847 36.7179 43.4825 36.6786C43.3823 36.6374 43.2624 36.6167 43.1228 36.6167C43.003 36.6167 42.8968 36.6374 42.8044 36.6786C42.7121 36.7199 42.6344 36.7769 42.5715 36.8496C42.5087 36.9204 42.4605 37.0019 42.4271 37.0943C42.3956 37.1867 42.3799 37.285 42.3799 37.3891ZM46.5014 39.4646C46.2793 39.4646 46.0778 39.4273 45.897 39.3526C45.7182 39.2759 45.5639 39.1688 45.4342 39.0312C45.3064 38.8937 45.2081 38.7305 45.1394 38.5418C45.0706 38.3532 45.0362 38.1468 45.0362 37.9227V37.7989C45.0362 37.5395 45.0745 37.3085 45.1511 37.1061C45.2278 36.9017 45.332 36.7288 45.4636 36.5872C45.5953 36.4457 45.7447 36.3386 45.9118 36.2659C46.0788 36.1932 46.2518 36.1568 46.4306 36.1568C46.6586 36.1568 46.8552 36.1961 47.0203 36.2747C47.1873 36.3534 47.3239 36.4634 47.43 36.6049C47.5362 36.7445 47.6148 36.9096 47.6659 37.1002C47.717 37.2889 47.7425 37.4953 47.7425 37.7193V37.964H45.3605V37.5188H47.1971V37.4776C47.1893 37.3361 47.1598 37.1985 47.1087 37.0648C47.0596 36.9312 46.9809 36.8211 46.8728 36.7346C46.7647 36.6482 46.6173 36.6049 46.4306 36.6049C46.3068 36.6049 46.1928 36.6315 46.0886 36.6845C45.9845 36.7356 45.8951 36.8123 45.8204 36.9145C45.7457 37.0167 45.6877 37.1415 45.6464 37.2889C45.6052 37.4363 45.5845 37.6063 45.5845 37.7989V37.9227C45.5845 38.0741 45.6052 38.2166 45.6464 38.3502C45.6897 38.4819 45.7516 38.5979 45.8322 38.6981C45.9147 38.7983 46.014 38.8769 46.1299 38.9339C46.2478 38.9909 46.3815 39.0194 46.5309 39.0194C46.7235 39.0194 46.8866 38.9801 47.0203 38.9015C47.1539 38.8229 47.2708 38.7177 47.3711 38.5861L47.7013 38.8484C47.6325 38.9526 47.545 39.0519 47.4389 39.1462C47.3328 39.2405 47.2021 39.3172 47.0468 39.3762C46.8935 39.4351 46.7117 39.4646 46.5014 39.4646ZM48.9247 36.8968V39.4056H48.3793V36.2158H48.8952L48.9247 36.8968ZM48.795 37.6898L48.568 37.681C48.57 37.4628 48.6024 37.2614 48.6653 37.0766C48.7282 36.8899 48.8166 36.7278 48.9306 36.5902C49.0446 36.4526 49.1802 36.3465 49.3375 36.2718C49.4967 36.1951 49.6726 36.1568 49.8652 36.1568C50.0224 36.1568 50.1639 36.1784 50.2897 36.2217C50.4155 36.263 50.5226 36.3298 50.6111 36.4221C50.7015 36.5145 50.7702 36.6344 50.8174 36.7818C50.8646 36.9273 50.8882 37.1051 50.8882 37.3154V39.4056H50.3398V37.3095C50.3398 37.1425 50.3153 37.0088 50.2661 36.9086C50.217 36.8064 50.1452 36.7327 50.0509 36.6875C49.9566 36.6403 49.8406 36.6167 49.703 36.6167C49.5674 36.6167 49.4436 36.6452 49.3316 36.7022C49.2215 36.7592 49.1262 36.8378 49.0456 36.9381C48.967 37.0383 48.9051 37.1533 48.8599 37.283C48.8166 37.4107 48.795 37.5464 48.795 37.6898ZM53.0521 36.2158V36.6344H51.3274V36.2158H53.0521ZM51.9112 35.4404H52.4566V38.6155C52.4566 38.7236 52.4733 38.8052 52.5067 38.8602C52.5401 38.9153 52.5833 38.9516 52.6364 38.9693C52.6895 38.987 52.7465 38.9959 52.8074 38.9959C52.8526 38.9959 52.8998 38.9919 52.9489 38.9841C53 38.9742 53.0383 38.9664 53.0639 38.9605L53.0668 39.4056C53.0236 39.4194 52.9666 39.4322 52.8958 39.444C52.8271 39.4577 52.7435 39.4646 52.6453 39.4646C52.5116 39.4646 52.3888 39.4381 52.2767 39.385C52.1647 39.3319 52.0753 39.2435 52.0085 39.1197C51.9436 38.9939 51.9112 38.8249 51.9112 38.6126V35.4404ZM56.9001 39.4056H55.7319L55.7393 38.5433H56.9001C57.19 38.5433 57.4345 38.4782 57.6335 38.348C57.8325 38.2153 57.9823 38.0225 58.083 37.7694C58.1862 37.5164 58.2378 37.2105 58.2378 36.8518V36.5902C58.2378 36.315 58.2083 36.073 58.1494 35.8642C58.0929 35.6554 58.0081 35.4797 57.8951 35.3372C57.7821 35.1948 57.6433 35.0879 57.4787 35.0166C57.3141 34.9429 57.1249 34.9061 56.9112 34.9061H55.7098V34.0401H56.9112C57.2699 34.0401 57.5978 34.1015 57.8951 34.2243C58.1948 34.3447 58.454 34.5179 58.6727 34.7439C58.8913 34.97 59.0596 35.2402 59.1775 35.5547C59.2979 35.8667 59.3581 36.2143 59.3581 36.5976V36.8518C59.3581 37.2326 59.2979 37.5803 59.1775 37.8947C59.0596 38.2092 58.8913 38.4794 58.6727 38.7055C58.4565 38.929 58.1973 39.1022 57.8951 39.2251C57.5954 39.3454 57.2637 39.4056 56.9001 39.4056ZM56.3584 34.0401V39.4056H55.2529V34.0401H56.3584ZM61.979 38.8602V37.2181C61.979 37.0924 61.9534 36.9833 61.9023 36.8909C61.8532 36.7966 61.7785 36.7238 61.6783 36.6727C61.578 36.6216 61.4542 36.5961 61.3068 36.5961C61.1692 36.5961 61.0484 36.6197 60.9442 36.6668C60.842 36.714 60.7614 36.7759 60.7024 36.8526C60.6454 36.9292 60.6169 37.0118 60.6169 37.1002H60.0715C60.0715 36.9862 60.101 36.8732 60.16 36.7612C60.219 36.6492 60.3035 36.5479 60.4135 36.4575C60.5256 36.3652 60.6592 36.2924 60.8145 36.2394C60.9717 36.1843 61.1466 36.1568 61.3392 36.1568C61.5712 36.1568 61.7756 36.1961 61.9524 36.2747C62.1313 36.3534 62.2708 36.4723 62.3711 36.6315C62.4733 36.7887 62.5244 36.9862 62.5244 37.224V38.7099C62.5244 38.816 62.5332 38.929 62.5509 39.0489C62.5706 39.1688 62.5991 39.272 62.6364 39.3585V39.4056H62.0674C62.0399 39.3427 62.0183 39.2592 62.0026 39.1551C61.9868 39.0489 61.979 38.9506 61.979 38.8602ZM62.0733 37.4717L62.0792 37.8549H61.5279C61.3726 37.8549 61.2341 37.8677 61.1122 37.8933C60.9904 37.9168 60.8882 37.9532 60.8056 38.0023C60.7231 38.0515 60.6602 38.1134 60.6169 38.1881C60.5737 38.2608 60.5521 38.3463 60.5521 38.4446C60.5521 38.5448 60.5747 38.6362 60.6199 38.7187C60.6651 38.8013 60.7329 38.8671 60.8233 38.9163C60.9157 38.9634 61.0287 38.987 61.1623 38.987C61.3294 38.987 61.4768 38.9516 61.6046 38.8809C61.7323 38.8101 61.8335 38.7236 61.9082 38.6214C61.9849 38.5192 62.0261 38.42 62.032 38.3237L62.2649 38.5861C62.2512 38.6686 62.2138 38.76 62.1529 38.8602C62.092 38.9605 62.0104 39.0568 61.9082 39.1492C61.808 39.2396 61.6881 39.3152 61.5486 39.3762C61.411 39.4351 61.2557 39.4646 61.0827 39.4646C60.8666 39.4646 60.6769 39.4223 60.5138 39.3378C60.3526 39.2533 60.2268 39.1403 60.1364 38.9988C60.048 38.8553 60.0037 38.6951 60.0037 38.5183C60.0037 38.3473 60.0372 38.1969 60.104 38.0672C60.1708 37.9355 60.2671 37.8264 60.3929 37.74C60.5187 37.6515 60.67 37.5847 60.8469 37.5395C61.0238 37.4943 61.2213 37.4717 61.4395 37.4717H62.0733ZM65.2396 38.5595C65.2396 38.4809 65.2219 38.4082 65.1865 38.3414C65.1531 38.2726 65.0833 38.2107 64.9772 38.1556C64.873 38.0986 64.7158 38.0495 64.5055 38.0082C64.3286 37.9709 64.1684 37.9267 64.025 37.8756C63.8835 37.8245 63.7626 37.7626 63.6623 37.6898C63.5641 37.6171 63.4884 37.5316 63.4353 37.4334C63.3823 37.3351 63.3557 37.2201 63.3557 37.0884C63.3557 36.9626 63.3833 36.8437 63.4383 36.7317C63.4953 36.6197 63.5749 36.5204 63.6771 36.4339C63.7813 36.3475 63.9061 36.2797 64.0515 36.2305C64.1969 36.1814 64.3591 36.1568 64.5379 36.1568C64.7934 36.1568 65.0116 36.202 65.1924 36.2924C65.3732 36.3828 65.5118 36.5037 65.6081 36.655C65.7044 36.8044 65.7526 36.9705 65.7526 37.1533H65.2072C65.2072 37.0648 65.1806 36.9793 65.1276 36.8968C65.0765 36.8123 65.0008 36.7425 64.9006 36.6875C64.8023 36.6324 64.6814 36.6049 64.5379 36.6049C64.3866 36.6049 64.2638 36.6285 64.1694 36.6757C64.0771 36.7209 64.0092 36.7789 63.966 36.8496C63.9247 36.9204 63.9041 36.9951 63.9041 37.0737C63.9041 37.1326 63.9139 37.1857 63.9336 37.2329C63.9552 37.2781 63.9925 37.3203 64.0456 37.3596C64.0987 37.397 64.1734 37.4324 64.2697 37.4658C64.366 37.4992 64.4888 37.5326 64.6382 37.566C64.8996 37.625 65.1148 37.6957 65.2838 37.7783C65.4528 37.8608 65.5786 37.962 65.6612 38.0819C65.7437 38.2018 65.785 38.3473 65.785 38.5183C65.785 38.6578 65.7555 38.7856 65.6965 38.9015C65.6396 39.0175 65.556 39.1177 65.446 39.2022C65.3379 39.2848 65.2081 39.3496 65.0568 39.3968C64.9074 39.442 64.7394 39.4646 64.5527 39.4646C64.2716 39.4646 64.0338 39.4145 63.8392 39.3142C63.6447 39.214 63.4973 39.0843 63.397 38.9251C63.2968 38.7659 63.2467 38.5979 63.2467 38.421H63.795C63.8029 38.5703 63.8461 38.6892 63.9247 38.7777C64.0033 38.8642 64.0997 38.9261 64.2136 38.9634C64.3276 38.9988 64.4407 39.0165 64.5527 39.0165C64.7021 39.0165 64.8269 38.9968 64.9271 38.9575C65.0293 38.9182 65.1069 38.8642 65.16 38.7954C65.2131 38.7266 65.2396 38.648 65.2396 38.5595ZM67.0468 34.8773V39.4056H66.5014V34.8773H67.0468ZM66.9171 37.6898L66.6901 37.681C66.692 37.4628 66.7245 37.2614 66.7873 37.0766C66.8502 36.8899 66.9387 36.7278 67.0527 36.5902C67.1667 36.4526 67.3023 36.3465 67.4595 36.2718C67.6187 36.1951 67.7946 36.1568 67.9872 36.1568C68.1445 36.1568 68.286 36.1784 68.4118 36.2217C68.5375 36.263 68.6447 36.3298 68.7331 36.4221C68.8235 36.5145 68.8923 36.6344 68.9395 36.7818C68.9866 36.9273 69.0102 37.1051 69.0102 37.3154V39.4056H68.4619V37.3095C68.4619 37.1425 68.4373 37.0088 68.3882 36.9086C68.339 36.8064 68.2673 36.7327 68.173 36.6875C68.0786 36.6403 67.9627 36.6167 67.8251 36.6167C67.6895 36.6167 67.5657 36.6452 67.4536 36.7022C67.3436 36.7592 67.2482 36.8378 67.1677 36.9381C67.089 37.0383 67.0271 37.1533 66.9819 37.283C66.9387 37.4107 66.9171 37.5464 66.9171 37.6898ZM69.8239 34.8773H70.3723V38.7865L70.3251 39.4056H69.8239V34.8773ZM72.5273 37.7842V37.8461C72.5273 38.078 72.4998 38.2932 72.4448 38.4917C72.3897 38.6883 72.3092 38.8593 72.203 39.0047C72.0969 39.1501 71.9672 39.2631 71.8139 39.3437C71.6606 39.4243 71.4847 39.4646 71.2862 39.4646C71.0837 39.4646 70.9059 39.4302 70.7526 39.3614C70.6012 39.2907 70.4735 39.1894 70.3693 39.0578C70.2651 38.9261 70.1816 38.7669 70.1187 38.5802C70.0578 38.3935 70.0155 38.1832 69.9919 37.9493V37.678C70.0155 37.4422 70.0578 37.2309 70.1187 37.0442C70.1816 36.8575 70.2651 36.6983 70.3693 36.5666C70.4735 36.433 70.6012 36.3317 70.7526 36.263C70.9039 36.1922 71.0798 36.1568 71.2803 36.1568C71.4807 36.1568 71.6586 36.1961 71.8139 36.2747C71.9692 36.3514 72.0989 36.4615 72.203 36.6049C72.3092 36.7484 72.3897 36.9204 72.4448 37.1209C72.4998 37.3194 72.5273 37.5405 72.5273 37.7842ZM71.979 37.8461V37.7842C71.979 37.625 71.9642 37.4756 71.9348 37.3361C71.9053 37.1946 71.8581 37.0707 71.7932 36.9646C71.7284 36.8565 71.6429 36.772 71.5368 36.7111C71.4306 36.6482 71.2999 36.6167 71.1447 36.6167C71.0071 36.6167 70.8872 36.6403 70.785 36.6875C70.6848 36.7346 70.5993 36.7985 70.5285 36.8791C70.4578 36.9577 70.3998 37.0481 70.3546 37.1503C70.3113 37.2506 70.2789 37.3547 70.2573 37.4628V38.1733C70.2887 38.3109 70.3398 38.4436 70.4106 38.5713C70.4833 38.6971 70.5796 38.8003 70.6995 38.8809C70.8214 38.9615 70.9717 39.0017 71.1506 39.0017C71.298 39.0017 71.4237 38.9723 71.5279 38.9133C71.634 38.8524 71.7195 38.7688 71.7844 38.6627C71.8512 38.5566 71.9004 38.4337 71.9318 38.2942C71.9633 38.1547 71.979 38.0053 71.979 37.8461ZM73.0727 37.8461V37.7783C73.0727 37.5483 73.1061 37.3351 73.173 37.1385C73.2398 36.94 73.3361 36.7681 73.4619 36.6226C73.5877 36.4752 73.74 36.3612 73.9188 36.2806C74.0977 36.1981 74.2982 36.1568 74.5202 36.1568C74.7443 36.1568 74.9458 36.1981 75.1246 36.2806C75.3054 36.3612 75.4587 36.4752 75.5845 36.6226C75.7123 36.7681 75.8096 36.94 75.8764 37.1385C75.9432 37.3351 75.9766 37.5483 75.9766 37.7783V37.8461C75.9766 38.076 75.9432 38.2893 75.8764 38.4858C75.8096 38.6824 75.7123 38.8543 75.5845 39.0017C75.4587 39.1472 75.3064 39.2612 75.1276 39.3437C74.9507 39.4243 74.7502 39.4646 74.5261 39.4646C74.3021 39.4646 74.1006 39.4243 73.9218 39.3437C73.7429 39.2612 73.5896 39.1472 73.4619 39.0017C73.3361 38.8543 73.2398 38.6824 73.173 38.4858C73.1061 38.2893 73.0727 38.076 73.0727 37.8461ZM73.6181 37.7783V37.8461C73.6181 38.0053 73.6368 38.1556 73.6741 38.2971C73.7115 38.4367 73.7675 38.5605 73.8422 38.6686C73.9188 38.7767 74.0142 38.8622 74.1281 38.9251C74.2421 38.986 74.3748 39.0165 74.5261 39.0165C74.6755 39.0165 74.8062 38.986 74.9182 38.9251C75.0322 38.8622 75.1266 38.7767 75.2013 38.6686C75.2759 38.5605 75.332 38.4367 75.3693 38.2971C75.4086 38.1556 75.4283 38.0053 75.4283 37.8461V37.7783C75.4283 37.621 75.4086 37.4727 75.3693 37.3331C75.332 37.1916 75.275 37.0668 75.1983 36.9587C75.1236 36.8486 75.0293 36.7622 74.9153 36.6993C74.8033 36.6364 74.6716 36.6049 74.5202 36.6049C74.3709 36.6049 74.2392 36.6364 74.1252 36.6993C74.0132 36.7622 73.9188 36.8486 73.8422 36.9587C73.7675 37.0668 73.7115 37.1916 73.6741 37.3331C73.6368 37.4727 73.6181 37.621 73.6181 37.7783ZM78.5415 38.8602V37.2181C78.5415 37.0924 78.5159 36.9833 78.4648 36.8909C78.4157 36.7966 78.341 36.7238 78.2408 36.6727C78.1405 36.6216 78.0167 36.5961 77.8693 36.5961C77.7317 36.5961 77.6109 36.6197 77.5067 36.6668C77.4045 36.714 77.3239 36.7759 77.2649 36.8526C77.2079 36.9292 77.1794 37.0118 77.1794 37.1002H76.634C76.634 36.9862 76.6635 36.8732 76.7225 36.7612C76.7815 36.6492 76.866 36.5479 76.976 36.4575C77.0881 36.3652 77.2217 36.2924 77.377 36.2394C77.5342 36.1843 77.7091 36.1568 77.9017 36.1568C78.1337 36.1568 78.3381 36.1961 78.5149 36.2747C78.6938 36.3534 78.8333 36.4723 78.9336 36.6315C79.0358 36.7887 79.0869 36.9862 79.0869 37.224V38.7099C79.0869 38.816 79.0957 38.929 79.1134 39.0489C79.1331 39.1688 79.1616 39.272 79.1989 39.3585V39.4056H78.6299C78.6024 39.3427 78.5808 39.2592 78.5651 39.1551C78.5493 39.0489 78.5415 38.9506 78.5415 38.8602ZM78.6358 37.4717L78.6417 37.8549H78.0904C77.9351 37.8549 77.7966 37.8677 77.6747 37.8933C77.5529 37.9168 77.4507 37.9532 77.3681 38.0023C77.2856 38.0515 77.2227 38.1134 77.1794 38.1881C77.1362 38.2608 77.1146 38.3463 77.1146 38.4446C77.1146 38.5448 77.1372 38.6362 77.1824 38.7187C77.2276 38.8013 77.2954 38.8671 77.3858 38.9163C77.4782 38.9634 77.5912 38.987 77.7248 38.987C77.8919 38.987 78.0393 38.9516 78.1671 38.8809C78.2948 38.8101 78.396 38.7236 78.4707 38.6214C78.5474 38.5192 78.5886 38.42 78.5945 38.3237L78.8274 38.5861C78.8137 38.6686 78.7763 38.76 78.7154 38.8602C78.6545 38.9605 78.5729 39.0568 78.4707 39.1492C78.3705 39.2396 78.2506 39.3152 78.1111 39.3762C77.9735 39.4351 77.8182 39.4646 77.6452 39.4646C77.4291 39.4646 77.2394 39.4223 77.0763 39.3378C76.9151 39.2533 76.7893 39.1403 76.6989 38.9988C76.6105 38.8553 76.5662 38.6951 76.5662 38.5183C76.5662 38.3473 76.5997 38.1969 76.6665 38.0672C76.7333 37.9355 76.8296 37.8264 76.9554 37.74C77.0812 37.6515 77.2325 37.5847 77.4094 37.5395C77.5863 37.4943 77.7838 37.4717 78.002 37.4717H78.6358ZM80.4902 36.717V39.4056H79.9448V36.2158H80.4754L80.4902 36.717ZM81.4866 36.1981L81.4837 36.7052C81.4385 36.6953 81.3953 36.6894 81.354 36.6875C81.3147 36.6835 81.2695 36.6816 81.2184 36.6816C81.0926 36.6816 80.9815 36.7012 80.8852 36.7405C80.7889 36.7799 80.7074 36.8349 80.6405 36.9056C80.5737 36.9764 80.5206 37.0609 80.4813 37.1592C80.444 37.2555 80.4194 37.3616 80.4076 37.4776L80.2543 37.566C80.2543 37.3734 80.273 37.1926 80.3103 37.0236C80.3497 36.8545 80.4096 36.7052 80.4902 36.5755C80.5708 36.4438 80.673 36.3416 80.7968 36.2688C80.9226 36.1942 81.0719 36.1568 81.2449 36.1568C81.2842 36.1568 81.3294 36.1617 81.3805 36.1716C81.4316 36.1794 81.467 36.1883 81.4866 36.1981ZM83.9424 38.7865V34.8773H84.4908V39.4056H83.9896L83.9424 38.7865ZM81.7962 37.8461V37.7842C81.7962 37.5405 81.8257 37.3194 81.8846 37.1209C81.9456 36.9204 82.0311 36.7484 82.1411 36.6049C82.2531 36.4615 82.3858 36.3514 82.5391 36.2747C82.6944 36.1961 82.8673 36.1568 83.058 36.1568C83.2585 36.1568 83.4334 36.1922 83.5827 36.263C83.7341 36.3317 83.8618 36.433 83.966 36.5666C84.0721 36.6983 84.1557 36.8575 84.2166 37.0442C84.2775 37.2309 84.3198 37.4422 84.3434 37.678V37.9493C84.3217 38.1832 84.2795 38.3935 84.2166 38.5802C84.1557 38.7669 84.0721 38.9261 83.966 39.0578C83.8618 39.1894 83.7341 39.2907 83.5827 39.3614C83.4314 39.4302 83.2545 39.4646 83.0521 39.4646C82.8654 39.4646 82.6944 39.4243 82.5391 39.3437C82.3858 39.2631 82.2531 39.1501 82.1411 39.0047C82.0311 38.8593 81.9456 38.6883 81.8846 38.4917C81.8257 38.2932 81.7962 38.078 81.7962 37.8461ZM82.3445 37.7842V37.8461C82.3445 38.0053 82.3603 38.1547 82.3917 38.2942C82.4251 38.4337 82.4762 38.5566 82.545 38.6627C82.6138 38.7688 82.7013 38.8524 82.8074 38.9133C82.9135 38.9723 83.0403 39.0017 83.1877 39.0017C83.3685 39.0017 83.5169 38.9634 83.6329 38.8868C83.7508 38.8101 83.8451 38.7089 83.9159 38.5831C83.9866 38.4573 84.0417 38.3207 84.081 38.1733V37.4628C84.0574 37.3547 84.023 37.2506 83.9778 37.1503C83.9346 37.0481 83.8776 36.9577 83.8068 36.8791C83.738 36.7985 83.6525 36.7346 83.5503 36.6875C83.4501 36.6403 83.3312 36.6167 83.1936 36.6167C83.0442 36.6167 82.9155 36.6482 82.8074 36.7111C82.7013 36.772 82.6138 36.8565 82.545 36.9646C82.4762 37.0707 82.4251 37.1946 82.3917 37.3361C82.3603 37.4756 82.3445 37.625 82.3445 37.7842Z" fill="#3247CC"/>
<circle cx="89.0566" cy="29.9339" r="4.5283" fill="#009EE0"/>
<circle cx="101.132" cy="29.9339" r="4.5283" fill="#009EE0"/>
<path d="M29.5592 12.5144L31.765 13.4891C34.1068 14.518 36.4487 15.5198 38.7633 16.5486C38.8517 16.57 38.9288 16.6236 38.9792 16.6988C39.0297 16.7741 39.0498 16.8654 39.0356 16.9548C39.0084 17.9024 39.0356 18.8501 39.0356 19.7977C39.038 19.9067 39.0289 20.0156 39.0084 20.1226L27.1902 14.8158V19.527C27.1902 19.7436 27.1629 19.8519 26.8906 19.8519C26.0192 19.8248 25.1478 19.8519 24.2764 19.8519C24.0858 19.8519 24.0041 19.8248 24.0041 19.6082C24.0314 17.7129 23.9497 15.8176 24.0586 13.9223C24.1947 11.5667 25.638 9.94218 27.9799 9.50897C28.4817 9.40905 28.993 9.36365 29.5048 9.37359H33.2627C34.4608 9.37359 35.2505 8.72378 35.4411 7.61368C35.4833 7.34511 35.4715 7.0709 35.4066 6.80685C35.3417 6.54281 35.2249 6.29415 35.0629 6.07519C34.9009 5.85624 34.6969 5.67131 34.4627 5.53108C34.2285 5.39085 33.9688 5.29807 33.6984 5.2581C33.6439 5.2581 33.5894 5.23102 33.535 5.23102C32.4457 5.20395 31.3837 5.23102 30.2945 5.23102H24.3581C24.0858 5.23102 24.0041 5.17687 24.0041 4.87904C24.0314 4.03969 24.0041 3.22742 24.0041 2.38808C24.0041 2.1444 24.0586 2.06317 24.3037 2.06317H33.2082C34.5697 2.06317 35.8496 2.38808 36.9388 3.30865C37.8139 4.05548 38.3771 5.10019 38.5182 6.23823C38.7405 7.45109 38.5688 8.70281 38.0281 9.81222C37.2928 11.2743 36.0402 12.0324 34.4881 12.3573C33.7144 12.4841 32.9294 12.5295 32.1462 12.4927H29.5048L29.5592 12.5144Z" fill="#009EE0"/>
<path d="M56.201 10.8903L56.3371 10.9715C57.9165 12.0545 58.2978 13.5978 58.1071 15.3848C58.0235 16.4405 57.5929 17.4395 56.8817 18.2278C56.0015 19.1331 54.8214 19.6909 53.5596 19.7982C52.6447 19.8706 51.7263 19.8887 50.8092 19.8523H43.8926C43.593 19.8523 43.5386 19.7711 43.5386 19.5003C43.5658 18.6881 43.5658 17.8758 43.5386 17.0635C43.5386 16.7928 43.6203 16.7386 43.8926 16.7386H52.906C53.4353 16.7579 53.9512 16.5703 54.3431 16.2161C54.735 15.8618 54.9718 15.3691 55.0028 14.8433C55.0656 14.3084 54.9241 13.7695 54.6064 13.3333C54.2888 12.8971 53.818 12.5953 53.2873 12.4877C53.134 12.4652 52.9791 12.4562 52.8243 12.4607H43.8926C43.6475 12.4607 43.5658 12.4065 43.5658 12.1357C43.593 11.3235 43.593 10.4841 43.5658 9.67187C43.5658 9.40111 43.6203 9.31988 43.9198 9.31988H52.7426C53.6957 9.31988 54.4582 9.02205 54.8667 8.10148C55.0906 7.59479 55.1047 7.02078 54.9059 6.50384C54.7071 5.9869 54.3114 5.56866 53.8046 5.33976C53.5446 5.23244 53.2686 5.16841 52.9877 5.15023H43.9743C43.6475 5.15023 43.5658 5.06901 43.593 4.77118C43.6203 3.93183 43.6203 3.11956 43.593 2.28022C43.593 2.06361 43.6475 2.00946 43.8653 2.00946H52.7971C54.1042 2.00946 55.3568 2.28022 56.446 3.11956C57.3513 3.82346 57.9389 4.85558 58.0799 5.98958C58.3389 7.16305 58.175 8.38968 57.617 9.45526C57.2611 10.0346 56.7767 10.5254 56.201 10.8903Z" fill="#009EE0"/>
<path d="M89.1678 16.7382H93.7699C94.2795 16.7483 94.7735 16.5625 95.1489 16.2196C95.5242 15.8766 95.7521 15.4029 95.7849 14.8971C95.8611 14.3483 95.7354 13.7906 95.4309 13.3267C95.2656 13.0587 95.0331 12.838 94.7563 12.6862C94.4794 12.5343 94.1677 12.4565 93.8515 12.4603H88.7049C87.736 12.4827 86.7753 12.2786 85.9001 11.8646C85.3211 11.582 84.8071 11.1837 84.39 10.6945C83.973 10.2053 83.662 9.63583 83.4766 9.02164C83.0857 7.78496 83.1048 6.45614 83.531 5.23106C84.1573 3.41699 85.5733 2.49642 87.3978 2.17151C87.91 2.08162 88.4302 2.04532 88.95 2.06321H97.446C97.7183 2.06321 97.8 2.11736 97.8 2.38811C97.7728 3.20038 97.7728 4.01265 97.8 4.82492C97.8 5.12275 97.7456 5.23106 97.4188 5.23106C94.4506 5.20398 91.4825 5.23106 88.5143 5.23106C88.0482 5.21623 87.5907 5.35771 87.2154 5.63273C86.84 5.90775 86.5685 6.30032 86.4447 6.74729C86.0907 7.91154 86.8532 9.4007 88.596 9.4007C90.2843 9.37363 91.9726 9.4007 93.6609 9.4007C94.6107 9.39447 95.5501 9.59791 96.4113 9.99637C97.0332 10.2746 97.5783 10.6981 98.0002 11.2308C98.4222 11.7634 98.7085 12.3896 98.8348 13.0559C99.0802 14.2016 99.0522 15.3886 98.7531 16.5216C98.263 18.3357 96.9559 19.2833 95.2131 19.7165C94.6048 19.8479 93.9838 19.9114 93.3614 19.906H84.4569C84.1846 19.906 84.1029 19.8519 84.1029 19.5811C84.1301 18.7689 84.1301 17.9566 84.1029 17.1443C84.1029 16.8736 84.1573 16.7924 84.4569 16.7924C86.009 16.7382 87.6157 16.7382 89.1678 16.7382Z" fill="#009EE0"/>
<path d="M63.2437 8.04674V2.41501C63.2437 2.11718 63.3526 2.03595 63.6249 2.03595C64.4418 2.06303 65.2315 2.06303 66.0484 2.03595C66.3208 2.03595 66.4024 2.0901 66.4024 2.38793V12.7579C66.3982 13.1218 66.4347 13.4851 66.5114 13.8409C66.634 14.4318 66.9133 14.9793 67.3202 15.4268C67.7272 15.8742 68.2471 16.2054 68.826 16.386C70.074 16.8181 71.4275 16.8465 72.6928 16.4673C73.4064 16.2736 74.0347 15.849 74.4786 15.2606C74.9224 14.6722 75.1564 13.9536 75.1436 13.2182V2.36086C75.1436 2.0901 75.198 2.03595 75.4703 2.03595C76.3145 2.06303 77.1587 2.03595 78.0301 2.03595C78.2479 2.03595 78.3568 2.06303 78.3568 2.33378V13.2182C78.3568 14.7886 77.9756 16.2507 76.9408 17.4961C76.2263 18.3473 75.2812 18.9769 74.2177 19.3102C72.193 19.9905 70.0072 20.0378 67.9546 19.4456C64.9592 18.6062 63.2981 16.3319 63.2709 13.2723C63.2437 11.5124 63.2437 9.77958 63.2437 8.04674Z" fill="#009EE0"/>
<path d="M0 11.0655C0.0100848 5.23962 4.68945 0.501084 10.4994 0.5C16.3094 0.501084 20.9888 5.24071 21 11.0655C20.9888 16.8925 16.3094 21.631 10.4994 21.6321C4.68945 21.631 0.0100848 16.8925 0 11.0655ZM0.653274 11.0655C0.654394 16.5618 5.07156 20.9903 10.4994 21.0001C15.9273 20.9903 20.3456 16.5618 20.3456 11.0655C20.3456 5.56918 15.9273 1.14178 10.4994 1.13094C5.07268 1.14178 0.655515 5.56918 0.653274 11.0655Z" fill="#009EE0"/>
<path d="M6.28513 18.4678C5.1937 16.5534 4.53041 13.9441 4.5293 11.066C4.53041 8.18794 5.1937 5.57868 6.28513 3.66428C7.37324 1.75747 8.91943 0.50542 10.7063 0.5C12.4932 0.50542 14.0394 1.75747 15.1264 3.66428C16.2189 5.57868 16.8811 8.18902 16.8822 11.066C16.8822 13.9441 16.2189 16.5534 15.1264 18.4678C14.0394 20.3746 12.4921 21.6277 10.7063 21.6321C8.91943 21.6277 7.37324 20.3757 6.28513 18.4678ZM14.5618 18.1599C15.5878 16.3648 16.2356 13.8487 16.2345 11.066C16.2356 8.28442 15.5878 5.7673 14.5618 3.97215C13.5314 2.16941 12.1527 1.12765 10.7063 1.13197C9.25995 1.12657 7.88013 2.16941 6.85081 3.97215C5.82482 5.7673 5.17706 8.28442 5.17706 11.066C5.17706 13.8487 5.82371 16.3648 6.85081 18.1599C7.88124 19.9627 9.25995 21.0044 10.7063 21.0001C12.1527 21.0055 13.5325 19.9627 14.5618 18.1599Z" fill="#009EE0"/>
<path d="M11.1173 0.898743H10.7056V21.2334H11.1173V0.898743Z" fill="#009EE0"/>
<path d="M20.5881 11.2654H0.411621V11.6641H20.5881V11.2654Z" fill="#009EE0"/>
<path d="M19.3529 5.68335H1.64697V6.48079H19.3529V5.68335Z" fill="#009EE0"/>
<path d="M19.3529 16.4487H1.64697V16.8474H19.3529V16.4487Z" fill="#009EE0"/>
</svg>
